{
    "accessors" : [
        {
            "bufferView" : 0, 
            "componentType" : 5123, 
            "count" : 768, 
            "max" : [
                423
            ], 
            "min" : [
                0
            ], 
            "type" : "SCALAR"
        }, 
        {
            "bufferView" : 1, 
            "componentType" : 5126, 
            "count" : 424, 
            "max" : [
                3.0, 
                0.31289565563201904, 
                3.0
            ], 
            "min" : [
                -3.0, 
                -0.260414719581604, 
                -3.0
            ], 
            "type" : "VEC3"
        }, 
        {
            "bufferView" : 2, 
            "componentType" : 5126, 
            "count" : 424, 
            "max" : [
                0.9951881766319275, 
                1.0, 
                0.9951881766319275
            ], 
            "min" : [
                -0.9951880574226379, 
                -1.0, 
                -0.9951880574226379
            ], 
            "type" : "VEC3"
        }, 
        {
            "bufferView" : 3, 
            "componentType" : 5121, 
            "count" : 36, 
            "max" : [
                23
            ], 
            "min" : [
                0
            ], 
            "type" : "SCALAR"
        }, 
        {
            "bufferView" : 4, 
            "componentType" : 5126, 
            "count" : 24, 
            "max" : [
                0.38811931014060974, 
                0.2576524317264557, 
                1.865221619606018
            ], 
            "min" : [
                -0.30615586042404175, 
                -0.211830735206604, 
                -0.25000014901161194
            ], 
            "type" : "VEC3"
        }, 
        {
            "bufferView" : 5, 
            "componentType" : 5126, 
            "count" : 24, 
            "max" : [
                1.0, 
                1.0, 
                1.0
            ], 
            "min" : [
                -1.0, 
                -1.0, 
                -1.0
            ], 
            "type" : "VEC3"
        }, 
        {
            "bufferView" : 6, 
            "componentType" : 5121, 
            "count" : 408, 
            "max" : [
                209
            ], 
            "min" : [
                0
            ], 
            "type" : "SCALAR"
        }, 
        {
            "bufferView" : 7, 
            "componentType" : 5126, 
            "count" : 210, 
            "max" : [
                0.9989930987358093, 
                0.30000314116477966, 
                0.9959743022918701
            ], 
            "min" : [
                -0.9989930987358093, 
                -0.27226901054382324, 
                -1.0
            ], 
            "type" : "VEC3"
        }, 
        {
            "bufferView" : 8, 
            "componentType" : 5126, 
            "count" : 210, 
            "max" : [
                0.9989930391311646, 
                1.0, 
                1.0
            ], 
            "min" : [
                -0.9989929795265198, 
                -1.0, 
                -0.9959743618965149
            ], 
            "type" : "VEC3"
        }, 
        {
            "bufferView" : 9, 
            "componentType" : 5123, 
            "count" : 768, 
            "max" : [
                383
            ], 
            "min" : [
                0
            ], 
            "type" : "SCALAR"
        }, 
        {
            "bufferView" : 10, 
            "componentType" : 5126, 
            "count" : 384, 
            "max" : [
                3.0, 
                0.1733858585357666, 
                3.0
            ], 
            "min" : [
                -3.0, 
                -0.1733858585357666, 
                -3.0
            ], 
            "type" : "VEC3"
        }, 
        {
            "bufferView" : 11, 
            "componentType" : 5126, 
            "count" : 384, 
            "max" : [
                0.9951881766319275, 
                1.0, 
                0.9951881170272827
            ], 
            "min" : [
                -0.9951880574226379, 
                -1.0, 
                -0.9951879978179932
            ], 
            "type" : "VEC3"
        }
    ], 
    "asset" : {
        "generator" : "Khronos Blender glTF 2.0 exporter", 
        "version" : "2.0"
    }, 
    "bufferViews" : [
        {
            "buffer" : 0, 
            "byteLength" : 1536, 
            "byteOffset" : 0, 
            "target" : 34963
        }, 
        {
            "buffer" : 0, 
            "byteLength" : 5088, 
            "byteOffset" : 1536, 
            "target" : 34962
        }, 
        {
            "buffer" : 0, 
            "byteLength" : 5088, 
            "byteOffset" : 6624, 
            "target" : 34962
        }, 
        {
            "buffer" : 0, 
            "byteLength" : 36, 
            "byteOffset" : 11712, 
            "target" : 34963
        }, 
        {
            "buffer" : 0, 
            "byteLength" : 288, 
            "byteOffset" : 11748, 
            "target" : 34962
        }, 
        {
            "buffer" : 0, 
            "byteLength" : 288, 
            "byteOffset" : 12036, 
            "target" : 34962
        }, 
        {
            "buffer" : 0, 
            "byteLength" : 408, 
            "byteOffset" : 12324, 
            "target" : 34963
        }, 
        {
            "buffer" : 0, 
            "byteLength" : 2520, 
            "byteOffset" : 12732, 
            "target" : 34962
        }, 
        {
            "buffer" : 0, 
            "byteLength" : 2520, 
            "byteOffset" : 15252, 
            "target" : 34962
        }, 
        {
            "buffer" : 0, 
            "byteLength" : 1536, 
            "byteOffset" : 17772, 
            "target" : 34963
        }, 
        {
            "buffer" : 0, 
            "byteLength" : 4608, 
            "byteOffset" : 19308, 
            "target" : 34962
        }, 
        {
            "buffer" : 0, 
            "byteLength" : 4608, 
            "byteOffset" : 23916, 
            "target" : 34962
        }
    ], 
    "buffers" : [
        {
            "byteLength" : 28524, 
            "uri" : "logo004.bin"
        }
    ], 
    "meshes" : [
        {
            "name" : "Cylinder.001", 
            "primitives" : [
                {
                    "attributes" : {
                        "NORMAL" : 2, 
                        "POSITION" : 1
                    }, 
                    "indices" : 0
                }
            ]
        }, 
        {
            "name" : "Cube.002", 
            "primitives" : [
                {
                    "attributes" : {
                        "NORMAL" : 5, 
                        "POSITION" : 4
                    }, 
                    "indices" : 3
                }
            ]
        }, 
        {
            "name" : "Cylinder.002", 
            "primitives" : [
                {
                    "attributes" : {
                        "NORMAL" : 8, 
                        "POSITION" : 7
                    }, 
                    "indices" : 6
                }
            ]
        }, 
        {
            "name" : "Cylinder.005", 
            "primitives" : [
                {
                    "attributes" : {
                        "NORMAL" : 11, 
                        "POSITION" : 10
                    }, 
                    "indices" : 9
                }
            ]
        }
    ], 
    "nodes" : [
        {
            "name" : "Camera", 
            "rotation" : [
                0.30655011534690857, 
                0.320961058139801, 
                -0.08730141073465347, 
                0.8918461203575134
            ], 
            "scale" : [
                0.1739654690027237, 
                0.3539868891239166, 
                0.21126751601696014
            ], 
            "translation" : [
                0.8289122581481934, 
                1.7596454620361328, 
                1.0858818292617798
            ]
        }, 
        {
            "mesh" : 1, 
            "name" : "Cube", 
            "rotation" : [
                0.0, 
                0.7038630247116089, 
                -0.0, 
                0.7103357911109924
            ], 
            "scale" : [
                0.19394688308238983, 
                0.19394689798355103, 
                0.19394683837890625
            ], 
            "translation" : [
                -0.6665983200073242, 
                0.05043161287903786, 
                0.0021950844675302505
            ]
        }, 
        {
            "mesh" : 2, 
            "name" : "Cylinder", 
            "rotation" : [
                0.0, 
                0.7038629651069641, 
                -0.0, 
                0.7103357911109924
            ], 
            "scale" : [
                0.16053913533687592, 
                0.1605391800403595, 
                0.16053913533687592
            ], 
            "translation" : [
                0.004059791564941406, 
                0.05253810063004494, 
                0.0012827757745981216
            ]
        }, 
        {
            "mesh" : 0, 
            "name" : "Cylinder.003", 
            "rotation" : [
                0.0, 
                0.7038629651069641, 
                -0.0, 
                0.7103357911109924
            ], 
            "scale" : [
                0.16053913533687592, 
                0.1605391800403595, 
                0.16053913533687592
            ], 
            "translation" : [
                0.004059791564941406, 
                0.051122430711984634, 
                0.0012827757745981216
            ]
        }, 
        {
            "mesh" : 3, 
            "name" : "Cylinder.004", 
            "rotation" : [
                0.0, 
                0.7038629651069641, 
                -0.0, 
                0.7103357911109924
            ], 
            "scale" : [
                0.26522400975227356, 
                0.26522400975227356, 
                0.26522400975227356
            ], 
            "translation" : [
                0.001594245433807373, 
                0.05542278662323952, 
                0.003507966175675392
            ]
        }, 
        {
            "name" : "Lamp", 
            "rotation" : [
                -3.3359345252392814e-05, 
                -0.9847003221511841, 
                -0.0011370837455615401, 
                0.17425283789634705
            ], 
            "scale" : [
                0.1605391502380371, 
                0.1605391502380371, 
                0.1605391800403595
            ], 
            "translation" : [
                0.0013983286917209625, 
                1.3102424144744873, 
                -0.001191403716802597
            ]
        }, 
        {
            "name" : "Lamp.006", 
            "rotation" : [
                0.9848136305809021, 
                0.0006693894974887371, 
                0.17361390590667725, 
                -0.0002881512918975204
            ], 
            "scale" : [
                0.16053913533687592, 
                0.16053913533687592, 
                0.1605391800403595
            ], 
            "translation" : [
                0.057798199355602264, 
                -0.8994784951210022, 
                -0.03626774996519089
            ]
        }, 
        {
            "name" : "Torus.003", 
            "rotation" : [
                0.0, 
                0.7038629651069641, 
                -0.0, 
                0.7103357911109924
            ], 
            "scale" : [
                0.16053913533687592, 
                0.1605391800403595, 
                0.16053913533687592
            ], 
            "translation" : [
                0.004059791564941406, 
                0.05539316311478615, 
                0.0012827757745981216
            ]
        }
    ], 
    "scene" : 0, 
    "scenes" : [
        {
            "name" : "Scene", 
            "nodes" : [
                6, 
                4, 
                3, 
                1, 
                2, 
                7, 
                5, 
                0
            ]
        }
    ]
}
